<svg width="64" height="64" viewBox="0 0 64 64" fill="none" xmlns="http://www.w3.org/2000/svg">
<path d="M29.2107 3.72634C29.5853 3.4032 29.817 2.94113 29.8571 2.44475C29.8971 1.9482 29.7425 1.45804 29.4245 1.07908C29.1065 0.700129 28.6507 0.462575 28.1548 0.415692C27.659 0.368981 27.1637 0.516773 26.7804 0.829546C25.7104 1.71034 24.794 2.64439 23.904 3.61644C15.3694 13.5551 9.10488 24.5763 2.77514 35.6432C2.31135 36.4846 2.50335 37.7693 3.15191 38.4782C4.82957 39.9663 5.80908 39.6494 6.63236 39.7602C7.43052 39.7747 8.16341 39.701 8.8311 39.6147C10.1881 39.433 11.4408 39.1638 12.6822 38.873C15.1463 38.2883 17.5218 37.6047 19.8843 36.914C24.5873 35.544 29.2684 34.0357 33.7998 33.0172C34.9425 32.7686 36.1037 32.5561 37.0525 32.4965C37.8197 32.4463 38.5314 32.093 39.0303 31.5082C39.5295 30.9236 39.7751 30.1555 39.7137 29.3786C39.6523 28.6019 39.2892 27.8818 38.7045 27.3829C38.1198 26.8836 37.3615 26.6465 36.5961 26.7175C35.0865 26.8629 33.7912 27.1585 32.5061 27.47C27.5481 28.7311 22.9531 30.3665 18.3243 31.8477C16.0164 32.5911 13.7147 33.3188 11.4464 33.9216C10.3111 34.2211 9.17849 34.4908 8.11905 34.6613C7.60499 34.7443 7.06957 34.8022 6.68318 34.8055C6.47766 34.8083 6.31788 34.7925 6.26846 34.7849C6.24586 34.7827 6.25922 34.7829 6.33158 34.8175C6.39286 34.8469 6.56205 34.9393 6.72619 35.1182L7.10294 37.9532C12.9753 26.9782 19.0898 15.6618 26.8056 6.19553C27.5886 5.29089 28.3881 4.44067 29.2107 3.72634Z" fill="#E5D955"/>
<path d="M23.2278 22.1232C22.7672 22.2138 22.3591 22.4863 22.0923 22.8768C21.8256 23.2674 21.7222 23.7439 21.8055 24.2057C21.8889 24.6675 22.1523 25.0778 22.5388 25.3507C22.9252 25.6233 23.4028 25.736 23.8659 25.6599C25.6441 25.373 27.473 25.1036 29.3027 24.8486C38.2759 23.7461 49.1527 22.0046 56.0453 23.6085L54.8314 21.6835C54.842 21.4372 54.8053 21.7603 54.5933 22.0744C54.395 22.4024 54.082 22.8083 53.7509 23.1857C48.8627 28.3458 42.0148 32.2947 35.6494 37.3589C34.327 38.4735 34.3614 40.2199 35.708 41.305C38.5123 43.2011 40.4212 43.446 42.6303 44.171C45.6164 45.0313 48.5598 45.7488 51.415 46.558C52.8356 46.9621 54.2427 47.386 55.5312 47.8746C56.1736 48.1194 56.7788 48.38 57.2625 48.6496C57.5053 48.7839 57.7033 48.9208 57.7898 48.9936C57.8355 49.0302 57.8462 49.0478 57.8145 48.9993C57.7877 48.9558 57.7034 48.8199 57.6595 48.5893L58.2852 46.4291C54.2298 50.3716 48.1366 53.6386 42.5597 56.7632C40.9556 57.6389 39.3148 58.5132 37.722 59.3305C37.3042 59.5424 36.9772 59.9046 36.8177 60.348C36.658 60.7913 36.6783 61.2778 36.8748 61.7025C37.0714 62.1274 37.4292 62.4577 37.8703 62.623C38.3117 62.7883 38.7995 62.7733 39.2314 62.5921C40.9548 61.8589 42.6552 61.0922 44.35 60.2996C50.3414 57.3558 56.2409 54.8102 61.807 49.7903C62.2431 49.3196 62.5684 48.2575 62.4327 47.6302C61.7125 45.2424 60.513 44.9703 59.7444 44.3872C58.9039 43.8914 58.1409 43.555 57.3638 43.2358C55.8237 42.6135 54.3267 42.138 52.8364 41.6886C49.8597 40.7977 46.9069 40.0544 44.0591 39.2328C42.1217 38.6771 39.6972 37.8946 38.9017 37.3105L38.9605 41.2566C44.7038 36.5649 51.5734 32.5757 57.3622 26.2713C58.1789 25.12 59.3825 24.2716 59.497 21.4319C59.4531 20.7622 58.8761 19.8214 58.2831 19.5069C46.7142 16.906 38.3527 19.8872 28.7208 21.1213C26.8739 21.4416 25.0531 21.7702 23.2278 22.1232Z" fill="#E5D955"/>
</svg>
