<svg width="436" height="91" viewBox="0 0 436 91" fill="none" xmlns="http://www.w3.org/2000/svg">
<path d="M39.1046 45.5681C38.4646 46.1228 37.5686 46.6775 36.4166 47.2321C35.2646 47.7441 33.9846 48.2135 32.5766 48.6401C31.2113 49.0668 29.7819 49.4081 28.2886 49.6641C26.8379 49.9201 25.4726 50.0481 24.1926 50.0481C20.4806 50.0481 17.1313 49.4721 14.1446 48.3201C11.2006 47.1681 8.66194 45.5681 6.52861 43.5201C4.43794 41.4721 2.81661 39.0615 1.66461 36.2881C0.555276 33.5148 0.000609636 30.5068 0.000609636 27.2641C0.000609636 23.4241 0.619276 19.9895 1.85661 16.9601C3.13661 13.8881 4.86461 11.3068 7.04061 9.21613C9.25928 7.0828 11.7979 5.4828 14.6566 4.41613C17.5153 3.3068 20.5446 2.75213 23.7446 2.75213C26.4326 2.75213 28.9286 3.07213 31.2326 3.71213C33.5366 4.35213 35.5633 5.1628 37.3126 6.14413L35.2006 11.8401C34.3473 11.3281 33.2806 10.8588 32.0006 10.4321C30.7633 10.0055 29.4833 9.66413 28.1606 9.40813C26.8379 9.10947 25.6006 8.96013 24.4486 8.96013C21.7179 8.96013 19.2433 9.3868 17.0246 10.2401C14.8059 11.0508 12.9073 12.2455 11.3286 13.8241C9.74994 15.3601 8.53394 17.2375 7.68061 19.4561C6.82728 21.6321 6.40061 24.0855 6.40061 26.8161C6.40061 29.3335 6.82728 31.6375 7.68061 33.7281C8.53394 35.8188 9.74994 37.6321 11.3286 39.1681C12.9073 40.6615 14.7846 41.8348 16.9606 42.6881C19.1793 43.4988 21.6113 43.9041 24.2566 43.9041C25.8353 43.9041 27.3926 43.7548 28.9286 43.4561C30.4646 43.1148 31.7873 42.6455 32.8966 42.0481V32.8321H23.6806V26.8801H39.1046V45.5681ZM49.4711 23.0401H55.4231V49.5361H49.4711V23.0401ZM49.0231 13.4401C49.0231 12.5015 49.3858 11.7121 50.1111 11.0721C50.8791 10.4321 51.7111 10.1121 52.6071 10.1121C53.5031 10.1121 54.2924 10.4321 54.9751 11.0721C55.7004 11.7121 56.0631 12.5015 56.0631 13.4401C56.0631 14.4215 55.7004 15.2321 54.9751 15.8721C54.2924 16.4695 53.5031 16.7681 52.6071 16.7681C51.7111 16.7681 50.8791 16.4481 50.1111 15.8081C49.3858 15.1681 49.0231 14.3788 49.0231 13.4401ZM63.4171 36.0321C63.4171 33.3868 64.0358 30.9975 65.2731 28.8641C66.5531 26.7308 68.3024 25.0455 70.5211 23.8081C72.7398 22.5708 75.2571 21.9521 78.0731 21.9521C80.9744 21.9521 83.5131 22.5708 85.6891 23.8081C87.8651 25.0455 89.5504 26.7308 90.7451 28.8641C91.9398 30.9975 92.5371 33.3868 92.5371 36.0321C92.5371 38.6775 91.9398 41.0881 90.7451 43.2641C89.5504 45.3975 87.8438 47.0828 85.6251 48.3201C83.4491 49.5575 80.9104 50.1761 78.0091 50.1761C75.1931 50.1761 72.6758 49.6001 70.4571 48.4481C68.2811 47.2535 66.5531 45.6108 65.2731 43.5201C64.0358 41.3868 63.4171 38.8908 63.4171 36.0321ZM69.3691 36.0961C69.3691 37.8028 69.7531 39.3601 70.5211 40.7681C71.2891 42.1335 72.3131 43.2215 73.5931 44.0321C74.9158 44.8428 76.3664 45.2481 77.9451 45.2481C79.6091 45.2481 81.0811 44.8428 82.3611 44.0321C83.6838 43.2215 84.7078 42.1335 85.4331 40.7681C86.1584 39.3601 86.5211 37.8028 86.5211 36.0961C86.5211 34.3895 86.1584 32.8535 85.4331 31.4881C84.7078 30.0801 83.6838 28.9708 82.3611 28.1601C81.0811 27.3068 79.6091 26.8801 77.9451 26.8801C76.3238 26.8801 74.8518 27.3068 73.5291 28.1601C72.2491 29.0135 71.2251 30.1441 70.4571 31.5521C69.7318 32.9175 69.3691 34.4321 69.3691 36.0961ZM112.884 50.1761C109.855 50.1761 107.252 49.5788 105.076 48.3841C102.9 47.1468 101.215 45.4828 100.02 43.3921C98.8681 41.2588 98.2921 38.8268 98.2921 36.0961C98.2921 33.4935 98.9534 31.1255 100.276 28.9921C101.599 26.8588 103.369 25.1521 105.588 23.8721C107.807 22.5921 110.281 21.9521 113.012 21.9521C116.511 21.9521 119.412 22.9761 121.716 25.0241C124.02 27.0721 125.577 29.8881 126.388 33.4721L104.564 41.1521L103.156 37.6321L121.076 31.1041L119.796 31.9361C119.284 30.5281 118.431 29.3121 117.236 28.2881C116.041 27.2215 114.484 26.6881 112.564 26.6881C110.943 26.6881 109.492 27.0935 108.212 27.9041C106.932 28.6721 105.929 29.7388 105.204 31.1041C104.479 32.4695 104.116 34.0268 104.116 35.7761C104.116 37.6108 104.5 39.2321 105.268 40.6401C106.036 42.0055 107.081 43.0935 108.404 43.9041C109.769 44.6721 111.305 45.0561 113.012 45.0561C114.164 45.0561 115.273 44.8428 116.34 44.4161C117.449 43.9895 118.473 43.4348 119.412 42.7521L122.164 47.1681C120.841 48.0641 119.348 48.7895 117.684 49.3441C116.063 49.8988 114.463 50.1761 112.884 50.1761ZM133.846 0.0001297H139.798V49.5361H133.846V0.0001297ZM162.384 50.1761C159.355 50.1761 156.752 49.5788 154.576 48.3841C152.4 47.1468 150.715 45.4828 149.52 43.3921C148.368 41.2588 147.792 38.8268 147.792 36.0961C147.792 33.4935 148.453 31.1255 149.776 28.9921C151.099 26.8588 152.869 25.1521 155.088 23.8721C157.307 22.5921 159.781 21.9521 162.512 21.9521C166.011 21.9521 168.912 22.9761 171.216 25.0241C173.52 27.0721 175.077 29.8881 175.888 33.4721L154.064 41.1521L152.656 37.6321L170.576 31.1041L169.296 31.9361C168.784 30.5281 167.931 29.3121 166.736 28.2881C165.541 27.2215 163.984 26.6881 162.064 26.6881C160.443 26.6881 158.992 27.0935 157.712 27.9041C156.432 28.6721 155.429 29.7388 154.704 31.1041C153.979 32.4695 153.616 34.0268 153.616 35.7761C153.616 37.6108 154 39.2321 154.768 40.6401C155.536 42.0055 156.581 43.0935 157.904 43.9041C159.269 44.6721 160.805 45.0561 162.512 45.0561C163.664 45.0561 164.773 44.8428 165.84 44.4161C166.949 43.9895 167.973 43.4348 168.912 42.7521L171.664 47.1681C170.341 48.0641 168.848 48.7895 167.184 49.3441C165.563 49.8988 163.963 50.1761 162.384 50.1761ZM229.004 11.5201C227.425 10.7095 225.697 10.0055 223.82 9.40813C221.943 8.8108 220.108 8.51213 218.316 8.51213C215.841 8.51213 213.857 9.08813 212.364 10.2401C210.913 11.3921 210.188 12.9281 210.188 14.8481C210.188 16.2988 210.657 17.5361 211.596 18.5601C212.535 19.5415 213.772 20.3948 215.308 21.1201C216.844 21.8455 218.444 22.5281 220.108 23.1681C221.559 23.7228 222.988 24.3415 224.396 25.0241C225.804 25.7068 227.063 26.5601 228.172 27.5841C229.324 28.6081 230.22 29.8668 230.86 31.3601C231.543 32.8535 231.884 34.7095 231.884 36.9281C231.884 39.3601 231.265 41.5788 230.028 43.5841C228.833 45.5895 227.105 47.1681 224.844 48.3201C222.583 49.4721 219.895 50.0481 216.78 50.0481C214.732 50.0481 212.769 49.8135 210.892 49.3441C209.057 48.8748 207.351 48.2775 205.772 47.5521C204.193 46.7841 202.785 45.9948 201.548 45.1841L204.3 40.3201C205.324 41.0455 206.497 41.7495 207.82 42.4321C209.143 43.0721 210.529 43.6055 211.98 44.0321C213.431 44.4161 214.839 44.6081 216.204 44.6081C217.655 44.6081 219.084 44.3521 220.492 43.8401C221.943 43.2855 223.137 42.4535 224.076 41.3441C225.015 40.2348 225.484 38.7628 225.484 36.9281C225.484 35.3495 225.057 34.0481 224.204 33.0241C223.393 31.9575 222.305 31.0615 220.94 30.3361C219.575 29.5681 218.124 28.8855 216.588 28.2881C215.137 27.7335 213.665 27.1361 212.172 26.4961C210.679 25.8135 209.292 25.0028 208.012 24.0641C206.732 23.0828 205.708 21.8881 204.94 20.4801C204.172 19.0721 203.788 17.3655 203.788 15.3601C203.788 12.9281 204.364 10.8161 205.516 9.02413C206.711 7.18946 208.332 5.76013 210.38 4.73613C212.428 3.66946 214.775 3.09346 217.42 3.00813C220.407 3.00813 223.031 3.3708 225.292 4.09613C227.596 4.82146 229.623 5.71746 231.372 6.78413L229.004 11.5201ZM240.846 23.0401H246.798V49.5361H240.846V23.0401ZM240.398 13.4401C240.398 12.5015 240.761 11.7121 241.486 11.0721C242.254 10.4321 243.086 10.1121 243.982 10.1121C244.878 10.1121 245.667 10.4321 246.35 11.0721C247.075 11.7121 247.438 12.5015 247.438 13.4401C247.438 14.4215 247.075 15.2321 246.35 15.8721C245.667 16.4695 244.878 16.7681 243.982 16.7681C243.086 16.7681 242.254 16.4481 241.486 15.8081C240.761 15.1681 240.398 14.3788 240.398 13.4401ZM257.096 0.0001297H263.048V49.5361H257.096V0.0001297ZM284.098 50.3041L269.378 23.0401H276.418L286.402 44.0961L282.754 43.9681L291.906 23.0401H298.562L284.418 50.3041H284.098ZM316.634 50.1761C313.605 50.1761 311.002 49.5788 308.826 48.3841C306.65 47.1468 304.965 45.4828 303.77 43.3921C302.618 41.2588 302.042 38.8268 302.042 36.0961C302.042 33.4935 302.703 31.1255 304.026 28.9921C305.349 26.8588 307.119 25.1521 309.338 23.8721C311.557 22.5921 314.031 21.9521 316.762 21.9521C320.261 21.9521 323.162 22.9761 325.466 25.0241C327.77 27.0721 329.327 29.8881 330.138 33.4721L308.314 41.1521L306.906 37.6321L324.826 31.1041L323.546 31.9361C323.034 30.5281 322.181 29.3121 320.986 28.2881C319.791 27.2215 318.234 26.6881 316.314 26.6881C314.693 26.6881 313.242 27.0935 311.962 27.9041C310.682 28.6721 309.679 29.7388 308.954 31.1041C308.229 32.4695 307.866 34.0268 307.866 35.7761C307.866 37.6108 308.25 39.2321 309.018 40.6401C309.786 42.0055 310.831 43.0935 312.154 43.9041C313.519 44.6721 315.055 45.0561 316.762 45.0561C317.914 45.0561 319.023 44.8428 320.09 44.4161C321.199 43.9895 322.223 43.4348 323.162 42.7521L325.914 47.1681C324.591 48.0641 323.098 48.7895 321.434 49.3441C319.813 49.8988 318.213 50.1761 316.634 50.1761ZM345.02 50.0481C343.143 50.0481 341.308 49.7281 339.516 49.0881C337.767 48.4055 336.316 47.4028 335.164 46.0801L337.66 42.6241C338.769 43.6908 339.9 44.5015 341.052 45.0561C342.247 45.5681 343.42 45.8241 344.572 45.8241C345.425 45.8241 346.215 45.7175 346.94 45.5041C347.665 45.2908 348.241 44.9495 348.668 44.4801C349.137 43.9681 349.372 43.2855 349.372 42.4321C349.372 41.4935 349.052 40.7468 348.412 40.1921C347.815 39.6375 347.025 39.1895 346.044 38.8481C345.105 38.5068 344.103 38.1868 343.036 37.8881C340.86 37.1628 339.196 36.1601 338.044 34.8801C336.892 33.6001 336.316 32.0428 336.316 30.2081C336.316 28.8001 336.657 27.4988 337.34 26.3041C338.065 25.0668 339.111 24.0641 340.476 23.2961C341.884 22.5281 343.612 22.1441 345.66 22.1441C347.495 22.1441 349.137 22.3788 350.588 22.8481C352.039 23.2748 353.404 24.0001 354.684 25.0241L352.316 28.7361C351.548 27.9255 350.631 27.3281 349.564 26.9441C348.497 26.5601 347.537 26.3468 346.684 26.3041C345.959 26.2615 345.255 26.3681 344.572 26.6241C343.932 26.8801 343.399 27.2428 342.972 27.7121C342.545 28.1815 342.332 28.7361 342.332 29.3761C342.332 30.2721 342.631 30.9975 343.228 31.5521C343.825 32.1068 344.593 32.5548 345.532 32.8961C346.513 33.1948 347.473 33.5148 348.412 33.8561C349.735 34.2401 350.908 34.7521 351.932 35.3921C352.956 36.0321 353.767 36.8215 354.364 37.7601C355.004 38.6988 355.324 39.8721 355.324 41.2801C355.324 42.8588 354.94 44.3308 354.172 45.6961C353.447 47.0188 352.316 48.0855 350.78 48.8961C349.287 49.6641 347.367 50.0481 345.02 50.0481ZM366.219 11.3921H372.171V23.1681H379.467V27.8401H372.171V49.5361H366.219V27.8401H361.355V23.1681H366.219V11.3921ZM391.971 23.0401L392.547 30.7201L392.227 29.6961C392.909 28.0748 393.891 26.7095 395.171 25.6001C396.493 24.4481 397.859 23.5735 399.267 22.9761C400.717 22.3361 401.976 22.0161 403.043 22.0161L402.723 27.9041C400.717 27.7761 398.947 28.1601 397.411 29.0561C395.917 29.9521 394.723 31.1468 393.827 32.6401C392.973 34.1335 392.547 35.7335 392.547 37.4401V49.5361H386.659V23.0401H391.971ZM421.884 50.1761C418.855 50.1761 416.252 49.5788 414.076 48.3841C411.9 47.1468 410.215 45.4828 409.02 43.3921C407.868 41.2588 407.292 38.8268 407.292 36.0961C407.292 33.4935 407.953 31.1255 409.276 28.9921C410.599 26.8588 412.369 25.1521 414.588 23.8721C416.807 22.5921 419.281 21.9521 422.012 21.9521C425.511 21.9521 428.412 22.9761 430.716 25.0241C433.02 27.0721 434.577 29.8881 435.388 33.4721L413.564 41.1521L412.156 37.6321L430.076 31.1041L428.796 31.9361C428.284 30.5281 427.431 29.3121 426.236 28.2881C425.041 27.2215 423.484 26.6881 421.564 26.6881C419.943 26.6881 418.492 27.0935 417.212 27.9041C415.932 28.6721 414.929 29.7388 414.204 31.1041C413.479 32.4695 413.116 34.0268 413.116 35.7761C413.116 37.6108 413.5 39.2321 414.268 40.6401C415.036 42.0055 416.081 43.0935 417.404 43.9041C418.769 44.6721 420.305 45.0561 422.012 45.0561C423.164 45.0561 424.273 44.8428 425.34 44.4161C426.449 43.9895 427.473 43.4348 428.412 42.7521L431.164 47.1681C429.841 48.0641 428.348 48.7895 426.684 49.3441C425.063 49.8988 423.463 50.1761 421.884 50.1761ZM4.75835 83.5361V72.9441H2.48635V70.2881H4.75835V64.6881C4.75835 62.7681 5.18502 61.2961 6.03835 60.2721C6.91302 59.2481 8.19302 58.7361 9.87835 58.7361C10.3264 58.7361 10.817 58.8001 11.3504 58.9281C11.905 59.0561 12.385 59.2695 12.7904 59.5681L11.5424 61.7121C11.3504 61.5201 11.137 61.3921 10.9024 61.3281C10.6677 61.2428 10.433 61.2001 10.1984 61.2001C9.40902 61.2001 8.80102 61.4668 8.37435 62.0001C7.94769 62.5335 7.73435 63.4401 7.73435 64.7201V70.2881H11.9264V72.9441H7.73435V83.5361H4.75835ZM17.7646 76.7841C17.7646 75.4615 18.0739 74.2668 18.6926 73.2001C19.3326 72.1335 20.2073 71.2908 21.3166 70.6721C22.4259 70.0535 23.6846 69.7441 25.0926 69.7441C26.5433 69.7441 27.8126 70.0535 28.9006 70.6721C29.9886 71.2908 30.8313 72.1335 31.4286 73.2001C32.0259 74.2668 32.3246 75.4615 32.3246 76.7841C32.3246 78.1068 32.0259 79.3121 31.4286 80.4001C30.8313 81.4668 29.9779 82.3095 28.8686 82.9281C27.7806 83.5468 26.5113 83.8561 25.0606 83.8561C23.6526 83.8561 22.3939 83.5681 21.2846 82.9921C20.1966 82.3948 19.3326 81.5735 18.6926 80.5281C18.0739 79.4615 17.7646 78.2135 17.7646 76.7841ZM20.7406 76.8161C20.7406 77.6695 20.9326 78.4481 21.3166 79.1521C21.7006 79.8348 22.2126 80.3788 22.8526 80.7841C23.5139 81.1895 24.2393 81.3921 25.0286 81.3921C25.8606 81.3921 26.5966 81.1895 27.2366 80.7841C27.8979 80.3788 28.4099 79.8348 28.7726 79.1521C29.1353 78.4481 29.3166 77.6695 29.3166 76.8161C29.3166 75.9628 29.1353 75.1948 28.7726 74.5121C28.4099 73.8081 27.8979 73.2535 27.2366 72.8481C26.5966 72.4215 25.8606 72.2081 25.0286 72.2081C24.2179 72.2081 23.4819 72.4215 22.8206 72.8481C22.1806 73.2748 21.6686 73.8401 21.2846 74.5441C20.9219 75.2268 20.7406 75.9841 20.7406 76.8161ZM41.4741 64.4641H44.4501V70.3521H48.0981V72.6881H44.4501V83.5361H41.4741V72.6881H39.0421V70.3521H41.4741V64.4641ZM54.3821 76.7841C54.3821 75.4615 54.6914 74.2668 55.3101 73.2001C55.9501 72.1335 56.8248 71.2908 57.9341 70.6721C59.0434 70.0535 60.3021 69.7441 61.7101 69.7441C63.1608 69.7441 64.4301 70.0535 65.5181 70.6721C66.6061 71.2908 67.4488 72.1335 68.0461 73.2001C68.6434 74.2668 68.9421 75.4615 68.9421 76.7841C68.9421 78.1068 68.6434 79.3121 68.0461 80.4001C67.4488 81.4668 66.5954 82.3095 65.4861 82.9281C64.3981 83.5468 63.1288 83.8561 61.6781 83.8561C60.2701 83.8561 59.0114 83.5681 57.9021 82.9921C56.8141 82.3948 55.9501 81.5735 55.3101 80.5281C54.6914 79.4615 54.3821 78.2135 54.3821 76.7841ZM57.3581 76.8161C57.3581 77.6695 57.5501 78.4481 57.9341 79.1521C58.3181 79.8348 58.8301 80.3788 59.4701 80.7841C60.1314 81.1895 60.8568 81.3921 61.6461 81.3921C62.4781 81.3921 63.2141 81.1895 63.8541 80.7841C64.5154 80.3788 65.0274 79.8348 65.3901 79.1521C65.7528 78.4481 65.9341 77.6695 65.9341 76.8161C65.9341 75.9628 65.7528 75.1948 65.3901 74.5121C65.0274 73.8081 64.5154 73.2535 63.8541 72.8481C63.2141 72.4215 62.4781 72.2081 61.6461 72.2081C60.8354 72.2081 60.0994 72.4215 59.4381 72.8481C58.7981 73.2748 58.2861 73.8401 57.9021 74.5441C57.5394 75.2268 57.3581 75.9841 57.3581 76.8161ZM83.1796 90.0961C82.1983 90.0961 81.3343 89.9788 80.5876 89.7441C79.8409 89.5308 79.1583 89.2215 78.5396 88.8161C77.9423 88.4108 77.3663 87.9521 76.8116 87.4401L78.5396 85.4241C79.2436 86.0855 79.9583 86.5975 80.6836 86.9601C81.4089 87.3228 82.2196 87.5041 83.1156 87.5041C84.1183 87.5041 84.9609 87.3335 85.6436 86.9921C86.3476 86.6721 86.8809 86.2135 87.2436 85.6161C87.6063 85.0401 87.7876 84.3681 87.7876 83.6001L87.8196 80.0161L88.0756 80.5921C87.6916 81.5095 86.9983 82.2881 85.9956 82.9281C84.9929 83.5468 83.7769 83.8561 82.3476 83.8561C81.1316 83.8561 80.0116 83.5468 78.9876 82.9281C77.9849 82.3095 77.1743 81.4775 76.5556 80.4321C75.9583 79.3655 75.6596 78.1708 75.6596 76.8481C75.6596 75.4615 75.9796 74.2455 76.6196 73.2001C77.2596 72.1335 78.1023 71.2908 79.1476 70.6721C80.1929 70.0535 81.3343 69.7441 82.5716 69.7441C83.7449 69.7441 84.8116 69.9895 85.7716 70.4801C86.7529 70.9495 87.4676 71.5575 87.9156 72.3041L87.7556 72.8481L88.0756 70.2881H90.7956V83.6321C90.7956 84.8268 90.4863 85.9148 89.8676 86.8961C89.2489 87.8775 88.3743 88.6561 87.2436 89.2321C86.1129 89.8081 84.7583 90.0961 83.1796 90.0961ZM78.6356 76.7841C78.6356 77.6375 78.8383 78.4161 79.2436 79.1201C79.6489 79.8241 80.1929 80.3788 80.8756 80.7841C81.5796 81.1895 82.3583 81.3921 83.2116 81.3921C84.0009 81.3921 84.7049 81.2535 85.3236 80.9761C85.9636 80.6775 86.4969 80.2828 86.9236 79.7921C87.3503 79.2801 87.6489 78.6935 87.8196 78.0321V75.4081C87.6276 74.7681 87.3076 74.2135 86.8596 73.7441C86.4116 73.2535 85.8783 72.8801 85.2596 72.6241C84.6409 72.3468 83.9583 72.2081 83.2116 72.2081C82.3583 72.2081 81.5796 72.4001 80.8756 72.7841C80.1929 73.1681 79.6489 73.7121 79.2436 74.4161C78.8383 75.0988 78.6356 75.8881 78.6356 76.7841ZM102.433 70.2881L102.721 74.1281L102.561 73.6161C102.902 72.8055 103.393 72.1228 104.033 71.5681C104.694 70.9921 105.377 70.5548 106.081 70.2561C106.806 69.9361 107.435 69.7761 107.969 69.7761L107.809 72.7201C106.806 72.6561 105.921 72.8481 105.153 73.2961C104.406 73.7441 103.809 74.3415 103.361 75.0881C102.934 75.8348 102.721 76.6348 102.721 77.4881V83.5361H99.7766V70.2881H102.433ZM120.839 83.8561C119.602 83.8561 118.471 83.5895 117.447 83.0561C116.445 82.5228 115.645 81.7441 115.047 80.7201C114.471 79.6748 114.183 78.4055 114.183 76.9121C114.183 75.4401 114.493 74.1708 115.111 73.1041C115.73 72.0161 116.551 71.1841 117.575 70.6081C118.621 70.0321 119.762 69.7441 120.999 69.7441C122.237 69.7441 123.282 70.0321 124.135 70.6081C124.989 71.1628 125.639 71.8241 126.087 72.5921L125.895 73.1041L126.183 70.2881H128.935V83.5361H125.959V80.0801L126.279 80.8481C126.194 81.0615 126.002 81.3388 125.703 81.6801C125.426 82.0001 125.042 82.3308 124.551 82.6721C124.082 83.0135 123.538 83.3015 122.919 83.5361C122.301 83.7495 121.607 83.8561 120.839 83.8561ZM121.639 81.3921C122.386 81.3921 123.058 81.2535 123.655 80.9761C124.253 80.6988 124.743 80.3148 125.127 79.8241C125.533 79.3121 125.81 78.7041 125.959 78.0001V75.4081C125.789 74.7681 125.49 74.2135 125.063 73.7441C124.637 73.2535 124.125 72.8801 123.527 72.6241C122.93 72.3468 122.269 72.2081 121.543 72.2081C120.754 72.2081 120.029 72.4001 119.367 72.7841C118.706 73.1681 118.173 73.7015 117.767 74.3841C117.383 75.0668 117.191 75.8668 117.191 76.7841C117.191 77.6375 117.394 78.4161 117.799 79.1201C118.205 79.8241 118.749 80.3788 119.431 80.7841C120.114 81.1895 120.85 81.3921 121.639 81.3921ZM139.013 83.5361V72.9441H136.741V70.2881H139.013V64.6881C139.013 62.7681 139.44 61.2961 140.293 60.2721C141.168 59.2481 142.448 58.7361 144.133 58.7361C144.581 58.7361 145.072 58.8001 145.605 58.9281C146.16 59.0561 146.64 59.2695 147.045 59.5681L145.797 61.7121C145.605 61.5201 145.392 61.3921 145.157 61.3281C144.923 61.2428 144.688 61.2001 144.453 61.2001C143.664 61.2001 143.056 61.4668 142.629 62.0001C142.203 62.5335 141.989 63.4401 141.989 64.7201V70.2881H146.181V72.9441H141.989V83.5361H139.013ZM152.02 76.7841C152.02 75.4615 152.329 74.2668 152.948 73.2001C153.588 72.1335 154.462 71.2908 155.572 70.6721C156.681 70.0535 157.94 69.7441 159.348 69.7441C160.798 69.7441 162.068 70.0535 163.156 70.6721C164.244 71.2908 165.086 72.1335 165.684 73.2001C166.281 74.2668 166.58 75.4615 166.58 76.7841C166.58 78.1068 166.281 79.3121 165.684 80.4001C165.086 81.4668 164.233 82.3095 163.124 82.9281C162.036 83.5468 160.766 83.8561 159.316 83.8561C157.908 83.8561 156.649 83.5681 155.54 82.9921C154.452 82.3948 153.588 81.5735 152.948 80.5281C152.329 79.4615 152.02 78.2135 152.02 76.7841ZM154.996 76.8161C154.996 77.6695 155.188 78.4481 155.572 79.1521C155.956 79.8348 156.468 80.3788 157.108 80.7841C157.769 81.1895 158.494 81.3921 159.284 81.3921C160.116 81.3921 160.852 81.1895 161.492 80.7841C162.153 80.3788 162.665 79.8348 163.028 79.1521C163.39 78.4481 163.572 77.6695 163.572 76.8161C163.572 75.9628 163.39 75.1948 163.028 74.5121C162.665 73.8081 162.153 73.2535 161.492 72.8481C160.852 72.4215 160.116 72.2081 159.284 72.2081C158.473 72.2081 157.737 72.4215 157.076 72.8481C156.436 73.2748 155.924 73.8401 155.54 74.5441C155.177 75.2268 154.996 75.9841 154.996 76.8161ZM198.078 59.6961C196.585 63.7708 195.091 67.8455 193.598 71.9201C192.105 75.9948 190.601 80.0695 189.086 84.1441H186.366C187.881 80.0695 189.385 75.9948 190.878 71.9201C192.371 67.8455 193.875 63.7708 195.39 59.6961H198.078ZM214.199 59.6961C212.706 63.7708 211.213 67.8455 209.719 71.9201C208.226 75.9948 206.722 80.0695 205.207 84.1441H202.487C204.002 80.0695 205.506 75.9948 206.999 71.9201C208.493 67.8455 209.997 63.7708 211.511 59.6961H214.199ZM239.998 83.9201L232.638 70.2881H236.158L241.15 80.8161L239.326 80.7521L243.902 70.2881H247.23L240.158 83.9201H239.998ZM254.274 70.2881H257.25V83.5361H254.274V70.2881ZM254.05 65.4881C254.05 65.0188 254.231 64.6241 254.594 64.3041C254.978 63.9841 255.394 63.8241 255.842 63.8241C256.29 63.8241 256.685 63.9841 257.026 64.3041C257.389 64.6241 257.57 65.0188 257.57 65.4881C257.57 65.9788 257.389 66.3841 257.026 66.7041C256.685 67.0028 256.29 67.1521 255.842 67.1521C255.394 67.1521 254.978 66.9921 254.594 66.6721C254.231 66.3521 254.05 65.9575 254.05 65.4881ZM271.615 83.8561C270.399 83.8561 269.29 83.5681 268.287 82.9921C267.306 82.3948 266.527 81.5628 265.951 80.4961C265.375 79.4081 265.087 78.1601 265.087 76.7521C265.087 75.2801 265.386 74.0215 265.983 72.9761C266.602 71.9308 267.434 71.1308 268.479 70.5761C269.524 70.0215 270.698 69.7441 271.999 69.7441C273.044 69.7441 274.036 69.9681 274.975 70.4161C275.935 70.8641 276.682 71.4828 277.215 72.2721L277.087 73.3281V58.7681H280.031V83.5361H277.055V80.2401L277.375 81.0721C276.756 81.8828 275.956 82.5548 274.975 83.0881C273.994 83.6001 272.874 83.8561 271.615 83.8561ZM272.543 81.3281C273.332 81.3281 274.036 81.1895 274.655 80.9121C275.274 80.6135 275.786 80.2081 276.191 79.6961C276.596 79.1841 276.884 78.5761 277.055 77.8721V75.3761C276.884 74.7361 276.575 74.1815 276.127 73.7121C275.7 73.2215 275.178 72.8375 274.559 72.5601C273.962 72.2615 273.29 72.1121 272.543 72.1121C271.732 72.1121 270.986 72.3148 270.303 72.7201C269.642 73.1041 269.108 73.6375 268.703 74.3201C268.298 75.0028 268.095 75.7921 268.095 76.6881C268.095 77.5628 268.298 78.3521 268.703 79.0561C269.108 79.7388 269.652 80.2935 270.335 80.7201C271.018 81.1255 271.754 81.3281 272.543 81.3281ZM295.192 83.8561C293.677 83.8561 292.376 83.5575 291.288 82.9601C290.2 82.3415 289.357 81.5095 288.76 80.4641C288.184 79.3975 287.896 78.1815 287.896 76.8161C287.896 75.5148 288.227 74.3308 288.888 73.2641C289.549 72.1975 290.435 71.3441 291.544 70.7041C292.653 70.0641 293.891 69.7441 295.256 69.7441C297.005 69.7441 298.456 70.2561 299.608 71.2801C300.76 72.3041 301.539 73.7121 301.944 75.5041L291.032 79.3441L290.328 77.5841L299.288 74.3201L298.648 74.7361C298.392 74.0321 297.965 73.4241 297.368 72.9121C296.771 72.3788 295.992 72.1121 295.032 72.1121C294.221 72.1121 293.496 72.3148 292.856 72.7201C292.216 73.1041 291.715 73.6375 291.352 74.3201C290.989 75.0028 290.808 75.7815 290.808 76.6561C290.808 77.5735 291 78.3841 291.384 79.0881C291.768 79.7708 292.291 80.3148 292.952 80.7201C293.635 81.1041 294.403 81.2961 295.256 81.2961C295.832 81.2961 296.387 81.1895 296.92 80.9761C297.475 80.7628 297.987 80.4855 298.456 80.1441L299.832 82.3521C299.171 82.8001 298.424 83.1628 297.592 83.4401C296.781 83.7175 295.981 83.8561 295.192 83.8561ZM308.361 76.7841C308.361 75.4615 308.67 74.2668 309.289 73.2001C309.929 72.1335 310.804 71.2908 311.913 70.6721C313.022 70.0535 314.281 69.7441 315.689 69.7441C317.14 69.7441 318.409 70.0535 319.497 70.6721C320.585 71.2908 321.428 72.1335 322.025 73.2001C322.622 74.2668 322.921 75.4615 322.921 76.7841C322.921 78.1068 322.622 79.3121 322.025 80.4001C321.428 81.4668 320.574 82.3095 319.465 82.9281C318.377 83.5468 317.108 83.8561 315.657 83.8561C314.249 83.8561 312.99 83.5681 311.881 82.9921C310.793 82.3948 309.929 81.5735 309.289 80.5281C308.67 79.4615 308.361 78.2135 308.361 76.7841ZM311.337 76.8161C311.337 77.6695 311.529 78.4481 311.913 79.1521C312.297 79.8348 312.809 80.3788 313.449 80.7841C314.11 81.1895 314.836 81.3921 315.625 81.3921C316.457 81.3921 317.193 81.1895 317.833 80.7841C318.494 80.3788 319.006 79.8348 319.369 79.1521C319.732 78.4481 319.913 77.6695 319.913 76.8161C319.913 75.9628 319.732 75.1948 319.369 74.5121C319.006 73.8081 318.494 73.2535 317.833 72.8481C317.193 72.4215 316.457 72.2081 315.625 72.2081C314.814 72.2081 314.078 72.4215 313.417 72.8481C312.777 73.2748 312.265 73.8401 311.881 74.5441C311.518 75.2268 311.337 75.9841 311.337 76.8161ZM333.446 70.2881L333.702 73.2641L333.574 73.0081C334.065 72.0055 334.758 71.2161 335.654 70.6401C336.572 70.0641 337.617 69.7761 338.79 69.7761C339.537 69.7761 340.198 69.8935 340.774 70.1281C341.35 70.3628 341.82 70.7041 342.182 71.1521C342.566 71.5788 342.812 72.1121 342.918 72.7521L342.758 72.8481C343.27 71.8881 343.974 71.1415 344.87 70.6081C345.788 70.0535 346.748 69.7761 347.75 69.7761C349.052 69.7761 350.076 70.1495 350.822 70.8961C351.59 71.6215 351.985 72.5708 352.006 73.7441V83.5361H349.03V74.8001C349.009 74.1175 348.838 73.5521 348.518 73.1041C348.22 72.6348 347.686 72.3788 346.918 72.3361C346.15 72.3361 345.457 72.5708 344.838 73.0401C344.241 73.5095 343.772 74.1175 343.43 74.8641C343.089 75.5895 342.908 76.3788 342.886 77.2321V83.5361H339.91V74.8001C339.889 74.1175 339.708 73.5521 339.366 73.1041C339.046 72.6348 338.502 72.3788 337.734 72.3361C336.945 72.3361 336.252 72.5708 335.654 73.0401C335.057 73.5095 334.588 74.1175 334.246 74.8641C333.926 75.6108 333.766 76.4108 333.766 77.2641V83.5361H330.79V70.2881H333.446ZM366.541 83.8561C365.303 83.8561 364.173 83.5895 363.149 83.0561C362.146 82.5228 361.346 81.7441 360.749 80.7201C360.173 79.6748 359.885 78.4055 359.885 76.9121C359.885 75.4401 360.194 74.1708 360.813 73.1041C361.431 72.0161 362.253 71.1841 363.277 70.6081C364.322 70.0321 365.463 69.7441 366.701 69.7441C367.938 69.7441 368.983 70.0321 369.837 70.6081C370.69 71.1628 371.341 71.8241 371.789 72.5921L371.597 73.1041L371.885 70.2881H374.637V83.5361H371.661V80.0801L371.981 80.8481C371.895 81.0615 371.703 81.3388 371.405 81.6801C371.127 82.0001 370.743 82.3308 370.253 82.6721C369.783 83.0135 369.239 83.3015 368.621 83.5361C368.002 83.7495 367.309 83.8561 366.541 83.8561ZM367.341 81.3921C368.087 81.3921 368.759 81.2535 369.357 80.9761C369.954 80.6988 370.445 80.3148 370.829 79.8241C371.234 79.3121 371.511 78.7041 371.661 78.0001V75.4081C371.49 74.7681 371.191 74.2135 370.765 73.7441C370.338 73.2535 369.826 72.8801 369.229 72.6241C368.631 72.3468 367.97 72.2081 367.245 72.2081C366.455 72.2081 365.73 72.4001 365.069 72.7841C364.407 73.1681 363.874 73.7015 363.469 74.3841C363.085 75.0668 362.893 75.8668 362.893 76.7841C362.893 77.6375 363.095 78.4161 363.501 79.1201C363.906 79.8241 364.45 80.3788 365.133 80.7841C365.815 81.1895 366.551 81.3921 367.341 81.3921ZM383.627 83.5361V58.7681H386.603V83.5361H383.627ZM389.803 74.7361L395.883 83.5361H392.395L387.819 76.4001L389.803 74.7361ZM385.675 79.3121L385.387 76.4641L393.419 70.0001L395.243 71.5681L385.675 79.3121ZM409.048 83.8561C407.533 83.8561 406.232 83.5575 405.144 82.9601C404.056 82.3415 403.213 81.5095 402.616 80.4641C402.04 79.3975 401.752 78.1815 401.752 76.8161C401.752 75.5148 402.083 74.3308 402.744 73.2641C403.405 72.1975 404.291 71.3441 405.4 70.7041C406.509 70.0641 407.747 69.7441 409.112 69.7441C410.861 69.7441 412.312 70.2561 413.464 71.2801C414.616 72.3041 415.395 73.7121 415.8 75.5041L404.888 79.3441L404.184 77.5841L413.144 74.3201L412.504 74.7361C412.248 74.0321 411.821 73.4241 411.224 72.9121C410.627 72.3788 409.848 72.1121 408.888 72.1121C408.077 72.1121 407.352 72.3148 406.712 72.7201C406.072 73.1041 405.571 73.6375 405.208 74.3201C404.845 75.0028 404.664 75.7815 404.664 76.6561C404.664 77.5735 404.856 78.3841 405.24 79.0881C405.624 79.7708 406.147 80.3148 406.808 80.7201C407.491 81.1041 408.259 81.2961 409.112 81.2961C409.688 81.2961 410.243 81.1895 410.776 80.9761C411.331 80.7628 411.843 80.4855 412.312 80.1441L413.688 82.3521C413.027 82.8001 412.28 83.1628 411.448 83.4401C410.637 83.7175 409.837 83.8561 409.048 83.8561ZM426.025 70.2881L426.313 74.1281L426.153 73.6161C426.494 72.8055 426.985 72.1228 427.625 71.5681C428.286 70.9921 428.969 70.5548 429.673 70.2561C430.398 69.9361 431.028 69.7761 431.561 69.7761L431.401 72.7201C430.398 72.6561 429.513 72.8481 428.745 73.2961C427.998 73.7441 427.401 74.3415 426.953 75.0881C426.526 75.8348 426.313 76.6348 426.313 77.4881V83.5361H423.369V70.2881H426.025Z" fill="black"/>
</svg>
